<svg xmlns="http://www.w3.org/2000/svg" xmlns:xlink="http://www.w3.org/1999/xlink" width="600" height="400" viewBox="0 0 600 400"><rect width="100%" height="100%" fill="#DDDDDD"/><path d="M125.75 175.15L125.75 214.92L118.32 214.92L118.32 175.15L125.75 175.15ZM143.87 200.12L143.87 200.12Q145.13 200.12 146.07 199.78Q147.00 199.44 147.62 198.83Q148.24 198.23 148.56 197.37Q148.87 196.52 148.87 195.50L148.87 195.50Q148.87 193.41 147.62 192.19Q146.37 190.97 143.87 190.97L143.87 190.97Q141.37 190.97 140.12 192.19Q138.86 193.41 138.86 195.50L138.86 195.50Q138.86 196.49 139.18 197.35Q139.50 198.20 140.12 198.82Q140.73 199.44 141.68 199.78Q142.63 200.12 143.87 200.12ZM151.54 216.18L151.54 216.18Q151.54 215.36 151.05 214.84Q150.55 214.31 149.70 214.02Q148.85 213.74 147.71 213.60Q146.56 213.46 145.29 213.39Q144.01 213.32 142.65 213.27Q141.28 213.21 139.99 213.05L139.99 213.05Q138.86 213.68 138.16 214.53Q137.46 215.39 137.46 216.51L137.46 216.51Q137.46 217.26 137.83 217.90Q138.20 218.55 139.02 219.02Q139.83 219.48 141.12 219.74Q142.41 220.01 144.28 220.01L144.28 220.01Q146.18 220.01 147.55 219.72Q148.93 219.43 149.82 218.92Q150.72 218.41 151.13 217.71Q151.54 217.01 151.54 216.18ZM150.19 187.67L158.31 187.67L158.31 190.20Q158.31 191.41 156.85 191.68L156.85 191.68L154.32 192.15Q154.90 193.61 154.90 195.34L154.90 195.34Q154.90 197.43 154.06 199.12Q153.22 200.81 151.73 201.99Q150.25 203.18 148.23 203.82Q146.21 204.47 143.87 204.47L143.87 204.47Q143.04 204.47 142.27 204.39Q141.50 204.30 140.76 204.17L140.76 204.17Q139.44 204.96 139.44 205.95L139.44 205.95Q139.44 206.81 140.23 207.20Q141.01 207.60 142.30 207.77Q143.59 207.93 145.24 207.97Q146.89 208.02 148.63 208.15Q150.36 208.29 152.01 208.63Q153.66 208.98 154.95 209.72Q156.24 210.46 157.03 211.74Q157.81 213.02 157.81 215.03L157.81 215.03Q157.81 216.90 156.89 218.66Q155.97 220.42 154.22 221.79Q152.48 223.17 149.93 224.01Q147.39 224.85 144.14 224.85L144.14 224.85Q140.95 224.85 138.59 224.23Q136.22 223.61 134.66 222.58Q133.09 221.55 132.32 220.20Q131.55 218.85 131.55 217.39L131.55 217.39Q131.55 215.41 132.75 214.08Q133.94 212.75 136.03 211.95L136.03 211.95Q134.90 211.37 134.24 210.41Q133.58 209.45 133.58 207.88L133.58 207.88Q133.58 207.25 133.82 206.57Q134.05 205.90 134.51 205.24Q134.96 204.58 135.65 203.99Q136.33 203.40 137.27 202.93L137.27 202.93Q135.12 201.77 133.90 199.85Q132.68 197.92 132.68 195.34L132.68 195.34Q132.68 193.25 133.52 191.56Q134.35 189.87 135.85 188.67Q137.35 187.47 139.40 186.84Q141.45 186.21 143.87 186.21L143.87 186.21Q145.68 186.21 147.28 186.58Q148.87 186.95 150.19 187.67L150.19 187.67ZM180.11 186.70L186.91 186.70L186.91 214.92L182.75 214.92Q181.41 214.92 181.05 213.68L181.05 213.68L180.58 211.43Q178.85 213.19 176.76 214.27Q174.67 215.36 171.84 215.36L171.84 215.36Q169.53 215.36 167.75 214.57Q165.98 213.79 164.77 212.36Q163.56 210.93 162.94 208.96Q162.32 207.00 162.32 204.63L162.32 204.63L162.32 186.70L169.11 186.70L169.11 204.63Q169.11 207.22 170.31 208.63Q171.51 210.05 173.90 210.05L173.90 210.05Q175.66 210.05 177.20 209.27Q178.74 208.48 180.11 207.11L180.11 207.11L180.11 186.70ZM208.52 207.63L208.52 202.87Q205.58 203.01 203.57 203.38Q201.56 203.75 200.35 204.33Q199.14 204.91 198.62 205.68Q198.10 206.45 198.10 207.36L198.10 207.36Q198.10 209.14 199.16 209.91Q200.22 210.68 201.92 210.68L201.92 210.68Q204.01 210.68 205.54 209.93Q207.06 209.17 208.52 207.63L208.52 207.63ZM194.17 192.81L192.96 190.64Q197.82 186.18 204.67 186.18L204.67 186.18Q207.15 186.18 209.10 186.99Q211.05 187.80 212.40 189.25Q213.75 190.69 214.45 192.70Q215.15 194.71 215.15 197.10L215.15 197.10L215.15 214.92L212.07 214.92Q211.11 214.92 210.58 214.63Q210.06 214.34 209.76 213.46L209.76 213.46L209.15 211.43Q208.08 212.39 207.06 213.12Q206.05 213.85 204.95 214.34Q203.85 214.84 202.60 215.10Q201.34 215.36 199.83 215.36L199.83 215.36Q198.04 215.36 196.53 214.88Q195.02 214.40 193.92 213.43Q192.82 212.47 192.21 211.04Q191.61 209.61 191.61 207.71L191.61 207.71Q191.61 206.64 191.97 205.58Q192.32 204.52 193.14 203.56Q193.95 202.60 195.24 201.75Q196.53 200.89 198.42 200.26Q200.30 199.63 202.80 199.23Q205.30 198.83 208.52 198.75L208.52 198.75L208.52 197.10Q208.52 194.27 207.31 192.90Q206.10 191.54 203.82 191.54L203.82 191.54Q202.17 191.54 201.08 191.93Q200.00 192.31 199.17 192.79Q198.35 193.28 197.67 193.66Q197.00 194.05 196.17 194.05L196.17 194.05Q195.46 194.05 194.96 193.67Q194.47 193.30 194.17 192.81L194.17 192.81ZM227.41 187.94L227.88 190.17Q228.73 189.32 229.68 188.59Q230.63 187.86 231.69 187.35Q232.75 186.84 233.96 186.55Q235.17 186.26 236.60 186.26L236.60 186.26Q238.91 186.26 240.70 187.05Q242.48 187.83 243.68 189.25Q244.88 190.66 245.50 192.63Q246.11 194.60 246.11 196.96L246.11 196.96L246.11 214.92L239.32 214.92L239.32 196.96Q239.32 194.38 238.14 192.96Q236.96 191.54 234.54 191.54L234.54 191.54Q232.78 191.54 231.24 192.34Q229.70 193.14 228.32 194.51L228.32 194.51L228.32 214.92L221.53 214.92L221.53 186.70L225.68 186.70Q227.00 186.70 227.41 187.94L227.41 187.94ZM267.45 207.63L267.45 202.87Q264.51 203.01 262.50 203.38Q260.50 203.75 259.29 204.33Q258.08 204.91 257.55 205.68Q257.03 206.45 257.03 207.36L257.03 207.36Q257.03 209.14 258.09 209.91Q259.15 210.68 260.85 210.68L260.85 210.68Q262.94 210.68 264.47 209.93Q266.00 209.17 267.45 207.63L267.45 207.63ZM253.10 192.81L251.89 190.64Q256.76 186.18 263.60 186.18L263.60 186.18Q266.08 186.18 268.03 186.99Q269.98 187.80 271.33 189.25Q272.68 190.69 273.38 192.70Q274.08 194.71 274.08 197.10L274.08 197.10L274.08 214.92L271.00 214.92Q270.04 214.92 269.52 214.63Q268.99 214.34 268.69 213.46L268.69 213.46L268.09 211.43Q267.01 212.39 266.00 213.12Q264.98 213.85 263.88 214.34Q262.78 214.84 261.53 215.10Q260.28 215.36 258.76 215.36L258.76 215.36Q256.98 215.36 255.46 214.88Q253.95 214.40 252.85 213.43Q251.75 212.47 251.15 211.04Q250.54 209.61 250.54 207.71L250.54 207.71Q250.54 206.64 250.90 205.58Q251.26 204.52 252.07 203.56Q252.88 202.60 254.17 201.75Q255.46 200.89 257.35 200.26Q259.23 199.63 261.73 199.23Q264.24 198.83 267.45 198.75L267.45 198.75L267.45 197.10Q267.45 194.27 266.24 192.90Q265.03 191.54 262.75 191.54L262.75 191.54Q261.10 191.54 260.02 191.93Q258.93 192.31 258.10 192.79Q257.28 193.28 256.61 193.66Q255.93 194.05 255.11 194.05L255.11 194.05Q254.39 194.05 253.90 193.67Q253.40 193.30 253.10 192.81L253.10 192.81ZM302.30 195.15L307.82 195.15Q309.86 195.15 311.37 194.64Q312.88 194.13 313.89 193.18Q314.89 192.23 315.39 190.87Q315.88 189.51 315.88 187.83L315.88 187.83Q315.88 186.24 315.39 184.94Q314.89 183.65 313.90 182.74Q312.91 181.84 311.40 181.35Q309.89 180.87 307.82 180.87L307.82 180.87L302.30 180.87L302.30 195.15ZM294.90 175.15L307.82 175.15Q311.81 175.15 314.73 176.09Q317.64 177.02 319.54 178.70Q321.44 180.38 322.36 182.72Q323.28 185.05 323.28 187.83L323.28 187.83Q323.28 190.72 322.32 193.13Q321.35 195.53 319.43 197.26Q317.50 199.00 314.60 199.96Q311.70 200.92 307.82 200.92L307.82 200.92L302.30 200.92L302.30 214.92L294.90 214.92L294.90 175.15ZM333.87 188.41L334.28 191.60Q335.60 189.07 337.41 187.63Q339.23 186.18 341.70 186.18L341.70 186.18Q343.66 186.18 344.84 187.03L344.84 187.03L344.40 192.12Q344.26 192.62 344.00 192.82Q343.74 193.03 343.30 193.03L343.30 193.03Q342.89 193.03 342.08 192.89Q341.26 192.75 340.49 192.75L340.49 192.75Q339.37 192.75 338.49 193.08Q337.61 193.41 336.91 194.03Q336.20 194.65 335.67 195.53Q335.13 196.41 334.66 197.54L334.66 197.54L334.66 214.92L327.87 214.92L327.87 186.70L331.86 186.70Q332.90 186.70 333.32 187.07Q333.73 187.45 333.87 188.41L333.87 188.41ZM360.87 186.26L360.87 186.26Q364.01 186.26 366.58 187.28Q369.15 188.30 370.98 190.17Q372.81 192.04 373.80 194.73Q374.79 197.43 374.79 200.76L374.79 200.76Q374.79 204.11 373.80 206.81Q372.81 209.50 370.98 211.40Q369.15 213.30 366.58 214.31Q364.01 215.33 360.87 215.33L360.87 215.33Q357.71 215.33 355.12 214.31Q352.54 213.30 350.71 211.40Q348.88 209.50 347.88 206.81Q346.87 204.11 346.87 200.76L346.87 200.76Q346.87 197.43 347.88 194.73Q348.88 192.04 350.71 190.17Q352.54 188.30 355.12 187.28Q357.71 186.26 360.87 186.26ZM360.87 210.11L360.87 210.11Q364.39 210.11 366.08 207.74Q367.77 205.38 367.77 200.81L367.77 200.81Q367.77 196.25 366.08 193.85Q364.39 191.46 360.87 191.46L360.87 191.46Q357.30 191.46 355.58 193.87Q353.86 196.27 353.86 200.81L353.86 200.81Q353.86 205.35 355.58 207.73Q357.30 210.11 360.87 210.11ZM400.17 186.70L405.61 186.70L390.24 222.67Q389.94 223.39 389.46 223.76Q388.98 224.13 387.99 224.13L387.99 224.13L382.93 224.13L388.21 212.80L376.79 186.70L382.76 186.70Q383.56 186.70 384.01 187.09Q384.47 187.47 384.69 187.97L384.69 187.97L390.68 202.60Q390.98 203.34 391.19 204.08Q391.40 204.83 391.59 205.60L391.59 205.60Q391.84 204.83 392.08 204.07Q392.33 203.31 392.63 202.57L392.63 202.57L398.30 187.97Q398.52 187.42 399.03 187.06Q399.54 186.70 400.17 186.70L400.17 186.70ZM414.36 197.57L427.17 197.57Q427.17 196.25 426.80 195.08Q426.43 193.91 425.69 193.03Q424.95 192.15 423.81 191.64Q422.66 191.13 421.15 191.13L421.15 191.13Q418.21 191.13 416.52 192.81Q414.83 194.49 414.36 197.57L414.36 197.57ZM431.68 201.66L414.22 201.66Q414.39 203.84 414.99 205.42Q415.60 207.00 416.59 208.03Q417.58 209.06 418.94 209.57Q420.30 210.08 421.95 210.08L421.95 210.08Q423.60 210.08 424.80 209.69Q425.99 209.31 426.89 208.84Q427.78 208.37 428.45 207.99Q429.13 207.60 429.76 207.60L429.76 207.60Q430.61 207.60 431.02 208.24L431.02 208.24L432.98 210.71Q431.85 212.03 430.45 212.92Q429.04 213.82 427.52 214.35Q425.99 214.89 424.41 215.11Q422.83 215.33 421.34 215.33L421.34 215.33Q418.40 215.33 415.87 214.35Q413.34 213.38 411.47 211.47Q409.60 209.56 408.53 206.74Q407.46 203.92 407.46 200.21L407.46 200.21Q407.46 197.32 408.39 194.77Q409.33 192.23 411.07 190.35Q412.82 188.46 415.34 187.36Q417.85 186.26 421.01 186.26L421.01 186.26Q423.68 186.26 425.94 187.12Q428.19 187.97 429.81 189.60Q431.44 191.24 432.36 193.62Q433.28 196.00 433.28 199.05L433.28 199.05Q433.28 200.59 432.95 201.13Q432.62 201.66 431.68 201.66L431.68 201.66ZM460.37 190.20L458.58 192.67Q458.28 193.06 457.99 193.28Q457.70 193.50 457.15 193.50L457.15 193.50Q456.63 193.50 456.13 193.18Q455.64 192.86 454.95 192.46Q454.26 192.07 453.31 191.75Q452.36 191.43 450.96 191.43L450.96 191.43Q449.17 191.43 447.83 192.08Q446.48 192.73 445.59 193.94Q444.69 195.15 444.25 196.86Q443.81 198.58 443.81 200.76L443.81 200.76Q443.81 203.01 444.29 204.77Q444.77 206.53 445.68 207.73Q446.59 208.92 447.88 209.54Q449.17 210.16 450.80 210.16L450.80 210.16Q452.42 210.16 453.42 209.76Q454.43 209.36 455.11 208.88Q455.80 208.40 456.31 208.00Q456.82 207.60 457.45 207.60L457.45 207.60Q458.28 207.60 458.69 208.24L458.69 208.24L460.64 210.71Q459.51 212.03 458.19 212.92Q456.87 213.82 455.46 214.35Q454.04 214.89 452.54 215.11Q451.04 215.33 449.56 215.33L449.56 215.33Q446.95 215.33 444.64 214.35Q442.33 213.38 440.59 211.51Q438.86 209.64 437.86 206.93Q436.85 204.22 436.85 200.76L436.85 200.76Q436.85 197.65 437.75 194.99Q438.64 192.34 440.37 190.40Q442.11 188.46 444.66 187.36Q447.22 186.26 450.55 186.26L450.55 186.26Q453.71 186.26 456.09 187.28Q458.47 188.30 460.37 190.20L460.37 190.20ZM474.28 215.36L474.28 215.36Q470.60 215.36 468.63 213.28Q466.66 211.21 466.66 207.55L466.66 207.55L466.66 191.79L463.78 191.79Q463.23 191.79 462.84 191.43Q462.46 191.08 462.46 190.36L462.46 190.36L462.46 187.67L466.99 186.92L468.42 179.22Q468.56 178.67 468.95 178.37Q469.33 178.07 469.94 178.07L469.94 178.07L473.46 178.07L473.46 186.95L480.99 186.95L480.99 191.79L473.46 191.79L473.46 207.08Q473.46 208.40 474.10 209.14Q474.75 209.89 475.88 209.89L475.88 209.89Q476.51 209.89 476.94 209.73Q477.36 209.58 477.68 209.42Q477.99 209.25 478.24 209.10Q478.49 208.95 478.74 208.95L478.74 208.95Q479.04 208.95 479.23 209.10Q479.42 209.25 479.64 209.56L479.64 209.56L481.68 212.86Q480.19 214.09 478.27 214.73Q476.34 215.36 474.28 215.36Z" fill="#999999"/></svg>