<svg xmlns="http://www.w3.org/2000/svg" xmlns:xlink="http://www.w3.org/1999/xlink" width="600" height="400" viewBox="0 0 600 400"><rect width="100%" height="100%" fill="#DDDDDD"/><path d="M129.19 194.19L136.12 194.19Q138.68 194.19 140.58 193.55Q142.47 192.91 143.73 191.72Q144.99 190.53 145.61 188.82Q146.23 187.11 146.23 185.01L146.23 185.01Q146.23 183.01 145.61 181.39Q144.99 179.77 143.75 178.63Q142.51 177.49 140.61 176.89Q138.71 176.28 136.12 176.28L136.12 176.28L129.19 176.28L129.19 194.19ZM119.91 169.11L136.12 169.11Q141.13 169.11 144.78 170.28Q148.44 171.45 150.82 173.56Q153.20 175.66 154.36 178.59Q155.51 181.53 155.51 185.01L155.51 185.01Q155.51 188.63 154.31 191.65Q153.10 194.67 150.68 196.84Q148.27 199.02 144.63 200.22Q140.99 201.43 136.12 201.43L136.12 201.43L129.19 201.43L129.19 218.99L119.91 218.99L119.91 169.11ZM176.94 183.04L176.94 183.04Q180.87 183.04 184.10 184.32Q187.32 185.60 189.62 187.94Q191.91 190.29 193.15 193.67Q194.40 197.05 194.40 201.22L194.40 201.22Q194.40 205.43 193.15 208.81Q191.91 212.20 189.62 214.58Q187.32 216.96 184.10 218.23Q180.87 219.51 176.94 219.51L176.94 219.51Q172.97 219.51 169.73 218.23Q166.48 216.96 164.19 214.58Q161.90 212.20 160.64 208.81Q159.38 205.43 159.38 201.22L159.38 201.22Q159.38 197.05 160.64 193.67Q161.90 190.29 164.19 187.94Q166.48 185.60 169.73 184.32Q172.97 183.04 176.94 183.04ZM176.94 212.95L176.94 212.95Q181.35 212.95 183.48 209.99Q185.60 207.02 185.60 201.29L185.60 201.29Q185.60 195.57 183.48 192.57Q181.35 189.56 176.94 189.56L176.94 189.56Q172.45 189.56 170.30 192.58Q168.14 195.60 168.14 201.29L168.14 201.29Q168.14 206.99 170.30 209.97Q172.45 212.95 176.94 212.95ZM224.44 187.42L222.51 190.50Q222.17 191.05 221.79 191.27Q221.41 191.50 220.82 191.50L220.82 191.50Q220.20 191.50 219.49 191.15Q218.79 190.81 217.86 190.37Q216.92 189.94 215.73 189.60Q214.54 189.25 212.92 189.25L212.92 189.25Q210.40 189.25 208.97 190.32Q207.54 191.39 207.54 193.12L207.54 193.12Q207.54 194.26 208.28 195.03Q209.02 195.81 210.25 196.39Q211.47 196.98 213.03 197.45Q214.58 197.91 216.18 198.46Q217.79 199.02 219.34 199.72Q220.89 200.43 222.12 201.52Q223.34 202.60 224.08 204.12Q224.82 205.64 224.82 207.78L224.82 207.78Q224.82 210.33 223.91 212.49Q223.00 214.65 221.20 216.22Q219.41 217.78 216.77 218.66Q214.13 219.54 210.68 219.54L210.68 219.54Q208.85 219.54 207.11 219.22Q205.37 218.89 203.76 218.30Q202.16 217.72 200.80 216.92Q199.43 216.13 198.40 215.20L198.40 215.20L200.36 211.95Q200.74 211.37 201.26 211.06Q201.78 210.75 202.57 210.75L202.57 210.75Q203.37 210.75 204.07 211.20Q204.78 211.64 205.71 212.16Q206.64 212.68 207.90 213.13Q209.16 213.58 211.09 213.58L211.09 213.58Q212.61 213.58 213.70 213.21Q214.78 212.85 215.49 212.26Q216.20 211.68 216.53 210.90Q216.85 210.13 216.85 209.30L216.85 209.30Q216.85 208.06 216.11 207.26Q215.37 206.47 214.15 205.88Q212.92 205.30 211.35 204.83Q209.78 204.36 208.14 203.81Q206.50 203.26 204.94 202.52Q203.37 201.78 202.14 200.64Q200.92 199.50 200.17 197.84Q199.43 196.19 199.43 193.84L199.43 193.84Q199.43 191.67 200.29 189.70Q201.16 187.74 202.83 186.27Q204.50 184.80 207.01 183.92Q209.51 183.04 212.78 183.04L212.78 183.04Q216.44 183.04 219.44 184.25Q222.44 185.46 224.44 187.42L224.44 187.42ZM243.04 219.54L243.04 219.54Q238.42 219.54 235.95 216.94Q233.48 214.33 233.48 209.75L233.48 209.75L233.48 189.98L229.86 189.98Q229.17 189.98 228.69 189.53Q228.21 189.08 228.21 188.18L228.21 188.18L228.21 184.80L233.90 183.87L235.69 174.21Q235.86 173.52 236.35 173.14Q236.83 172.76 237.59 172.76L237.59 172.76L242.01 172.76L242.01 183.91L251.46 183.91L251.46 189.98L242.01 189.98L242.01 209.16Q242.01 210.82 242.82 211.75Q243.63 212.68 245.04 212.68L245.04 212.68Q245.83 212.68 246.37 212.49Q246.90 212.30 247.30 212.09Q247.70 211.89 248.01 211.70Q248.32 211.51 248.63 211.51L248.63 211.51Q249.01 211.51 249.25 211.70Q249.49 211.89 249.77 212.26L249.77 212.26L252.32 216.40Q250.46 217.96 248.04 218.75Q245.63 219.54 243.04 219.54ZM269.85 200.43L269.85 200.43Q271.43 200.43 272.61 200Q273.78 199.57 274.56 198.81Q275.33 198.05 275.73 196.98Q276.13 195.91 276.13 194.64L276.13 194.64Q276.13 192.01 274.56 190.48Q272.99 188.94 269.85 188.94L269.85 188.94Q266.71 188.94 265.14 190.48Q263.57 192.01 263.57 194.64L263.57 194.64Q263.57 195.88 263.96 196.95Q264.36 198.02 265.14 198.79Q265.91 199.57 267.10 200Q268.29 200.43 269.85 200.43ZM279.47 220.58L279.47 220.58Q279.47 219.54 278.85 218.89Q278.23 218.23 277.16 217.87Q276.09 217.51 274.66 217.34Q273.23 217.16 271.62 217.08Q270.02 216.99 268.31 216.92Q266.60 216.85 264.98 216.65L264.98 216.65Q263.57 217.44 262.69 218.51Q261.81 219.58 261.81 220.99L261.81 220.99Q261.81 221.92 262.27 222.74Q262.74 223.55 263.76 224.13Q264.78 224.72 266.40 225.05Q268.02 225.37 270.36 225.37L270.36 225.37Q272.75 225.37 274.47 225.01Q276.19 224.65 277.32 224.01Q278.44 223.37 278.95 222.49Q279.47 221.61 279.47 220.58ZM277.78 184.80L287.96 184.80L287.96 187.98Q287.96 189.49 286.13 189.84L286.13 189.84L282.96 190.43Q283.68 192.25 283.68 194.43L283.68 194.43Q283.68 197.05 282.63 199.17Q281.58 201.29 279.71 202.78Q277.85 204.26 275.32 205.07Q272.78 205.88 269.85 205.88L269.85 205.88Q268.81 205.88 267.85 205.78Q266.88 205.68 265.95 205.50L265.95 205.50Q264.29 206.50 264.29 207.75L264.29 207.75Q264.29 208.81 265.28 209.31Q266.26 209.82 267.88 210.02Q269.50 210.23 271.57 210.28Q273.64 210.33 275.82 210.51Q277.99 210.68 280.06 211.11Q282.13 211.54 283.75 212.47Q285.37 213.40 286.36 215.01Q287.34 216.61 287.34 219.13L287.34 219.13Q287.34 221.48 286.18 223.68Q285.03 225.89 282.84 227.62Q280.65 229.34 277.45 230.39Q274.26 231.45 270.19 231.45L270.19 231.45Q266.19 231.45 263.22 230.67Q260.26 229.89 258.29 228.60Q256.32 227.31 255.36 225.62Q254.39 223.93 254.39 222.10L254.39 222.10Q254.39 219.61 255.89 217.94Q257.39 216.27 260.01 215.27L260.01 215.27Q258.60 214.54 257.77 213.33Q256.94 212.13 256.94 210.16L256.94 210.16Q256.94 209.37 257.24 208.52Q257.53 207.68 258.10 206.85Q258.67 206.02 259.53 205.28Q260.39 204.54 261.57 203.95L261.57 203.95Q258.88 202.50 257.34 200.09Q255.81 197.67 255.81 194.43L255.81 194.43Q255.81 191.81 256.86 189.68Q257.91 187.56 259.79 186.06Q261.67 184.56 264.24 183.77Q266.81 182.97 269.85 182.97L269.85 182.97Q272.12 182.97 274.13 183.44Q276.13 183.91 277.78 184.80L277.78 184.80ZM300.86 185.73L301.38 189.74Q303.04 186.56 305.31 184.75Q307.59 182.94 310.69 182.94L310.69 182.94Q313.14 182.94 314.63 184.01L314.63 184.01L314.08 190.39Q313.90 191.01 313.58 191.27Q313.25 191.53 312.70 191.53L312.70 191.53Q312.18 191.53 311.16 191.36Q310.14 191.19 309.18 191.19L309.18 191.19Q307.76 191.19 306.66 191.60Q305.55 192.01 304.67 192.79Q303.80 193.57 303.12 194.67Q302.45 195.77 301.86 197.19L301.86 197.19L301.86 218.99L293.34 218.99L293.34 183.60L298.34 183.60Q299.65 183.60 300.17 184.06Q300.69 184.53 300.86 185.73L300.86 185.73ZM325.81 197.22L341.88 197.22Q341.88 195.57 341.42 194.10Q340.95 192.63 340.02 191.53Q339.09 190.43 337.66 189.79Q336.23 189.15 334.33 189.15L334.33 189.15Q330.64 189.15 328.51 191.25Q326.39 193.36 325.81 197.22L325.81 197.22ZM347.54 202.36L325.63 202.36Q325.84 205.09 326.60 207.07Q327.36 209.06 328.60 210.35Q329.84 211.64 331.55 212.28Q333.26 212.92 335.33 212.92L335.33 212.92Q337.40 212.92 338.90 212.44Q340.40 211.95 341.52 211.37Q342.64 210.78 343.49 210.30Q344.33 209.82 345.13 209.82L345.13 209.82Q346.20 209.82 346.71 210.61L346.71 210.61L349.16 213.71Q347.75 215.37 345.99 216.49Q344.23 217.61 342.31 218.29Q340.40 218.96 338.42 219.23Q336.43 219.51 334.57 219.51L334.57 219.51Q330.88 219.51 327.70 218.29Q324.53 217.06 322.18 214.66Q319.84 212.26 318.49 208.73Q317.15 205.19 317.15 200.53L317.15 200.53Q317.15 196.91 318.32 193.72Q319.49 190.53 321.68 188.17Q323.87 185.80 327.03 184.42Q330.19 183.04 334.16 183.04L334.16 183.04Q337.50 183.04 340.33 184.11Q343.16 185.18 345.19 187.24Q347.23 189.29 348.39 192.27Q349.54 195.26 349.54 199.09L349.54 199.09Q349.54 201.02 349.13 201.69Q348.71 202.36 347.54 202.36L347.54 202.36ZM386.15 173.80L383.84 178.18Q383.42 178.90 382.96 179.23Q382.49 179.56 381.80 179.56L381.80 179.56Q381.08 179.56 380.23 179.02Q379.38 178.49 378.21 177.83Q377.04 177.18 375.47 176.64Q373.90 176.11 371.76 176.11L371.76 176.11Q369.83 176.11 368.38 176.57Q366.93 177.04 365.95 177.87Q364.96 178.70 364.48 179.85Q364.00 181.01 364.00 182.39L364.00 182.39Q364.00 184.15 364.98 185.32Q365.96 186.49 367.59 187.32Q369.21 188.15 371.28 188.80Q373.35 189.46 375.52 190.20Q377.69 190.94 379.76 191.93Q381.83 192.91 383.46 194.41Q385.08 195.91 386.06 198.09Q387.04 200.26 387.04 203.36L387.04 203.36Q387.04 206.74 385.89 209.69Q384.73 212.64 382.51 214.84Q380.28 217.03 377.07 218.29Q373.86 219.54 369.72 219.54L369.72 219.54Q367.34 219.54 365.03 219.08Q362.72 218.61 360.60 217.75Q358.48 216.89 356.61 215.68Q354.75 214.47 353.30 212.99L353.30 212.99L356.03 208.54Q356.37 208.06 356.93 207.73Q357.48 207.40 358.10 207.40L358.10 207.40Q358.96 207.40 359.96 208.11Q360.96 208.81 362.34 209.68Q363.72 210.54 365.57 211.25Q367.41 211.95 370.00 211.95L370.00 211.95Q373.97 211.95 376.14 210.07Q378.31 208.19 378.31 204.67L378.31 204.67Q378.31 202.71 377.33 201.47Q376.35 200.22 374.73 199.38Q373.11 198.53 371.04 197.95Q368.97 197.36 366.83 196.67Q364.69 195.98 362.62 195.01Q360.55 194.05 358.93 192.50Q357.30 190.94 356.32 188.62Q355.34 186.29 355.34 182.87L355.34 182.87Q355.34 180.15 356.42 177.56Q357.51 174.97 359.58 172.97Q361.65 170.97 364.69 169.76Q367.72 168.55 371.66 168.55L371.66 168.55Q376.07 168.55 379.80 169.93Q383.52 171.31 386.15 173.80L386.15 173.80ZM401.67 194.05L401.67 194.05Q401.67 198.15 402.78 201.41Q403.88 204.67 405.93 206.93Q407.99 209.19 410.90 210.40Q413.82 211.61 417.47 211.61L417.47 211.61Q421.13 211.61 424.04 210.40Q426.96 209.19 429.00 206.93Q431.03 204.67 432.13 201.41Q433.24 198.15 433.24 194.05L433.24 194.05Q433.24 189.94 432.13 186.68Q431.03 183.42 429.00 181.15Q426.96 178.87 424.04 177.66Q421.13 176.45 417.47 176.45L417.47 176.45Q413.82 176.45 410.90 177.66Q407.99 178.87 405.93 181.15Q403.88 183.42 402.78 186.68Q401.67 189.94 401.67 194.05ZM432.65 214.96L445.31 228.76L437.66 228.76Q436.00 228.76 434.67 228.31Q433.34 227.86 432.24 226.65L432.24 226.65L424.92 218.58Q423.17 219.06 421.32 219.30Q419.47 219.54 417.47 219.54L417.47 219.54Q411.81 219.54 407.16 217.63Q402.50 215.71 399.17 212.30Q395.84 208.88 394.01 204.21Q392.18 199.53 392.18 194.05L392.18 194.05Q392.18 188.56 394.01 183.89Q395.84 179.21 399.17 175.80Q402.50 172.38 407.16 170.47Q411.81 168.55 417.47 168.55L417.47 168.55Q421.27 168.55 424.61 169.43Q427.96 170.31 430.75 171.92Q433.55 173.52 435.77 175.82Q438 178.11 439.55 180.94Q441.11 183.77 441.92 187.08Q442.73 190.39 442.73 194.05L442.73 194.05Q442.73 197.40 442.04 200.45Q441.35 203.50 440.05 206.16Q438.76 208.81 436.90 211.04Q435.03 213.27 432.65 214.96L432.65 214.96ZM460.15 211.33L480.09 211.33L480.09 218.99L450.87 218.99L450.87 169.11L460.15 169.11L460.15 211.33Z" fill="#999999"/></svg>