<svg xmlns="http://www.w3.org/2000/svg" xmlns:xlink="http://www.w3.org/1999/xlink" width="600" height="400" viewBox="0 0 600 400"><rect width="100%" height="100%" fill="#DDDDDD"/><path d="M159.44 165.99L159.44 174.49L142.65 174.49L142.65 221.66L132.29 221.66L132.29 174.49L115.51 174.49L115.51 165.99L159.44 165.99ZM186.12 211.45L186.12 204.79Q182.00 204.99 179.19 205.51Q176.38 206.03 174.68 206.83Q172.99 207.64 172.26 208.72Q171.53 209.80 171.53 211.07L171.53 211.07Q171.53 213.57 173.01 214.65Q174.49 215.73 176.88 215.73L176.88 215.73Q179.80 215.73 181.94 214.67Q184.08 213.61 186.12 211.45L186.12 211.45ZM166.02 190.70L164.33 187.66Q171.14 181.42 180.73 181.42L180.73 181.42Q184.19 181.42 186.93 182.56Q189.66 183.70 191.55 185.72Q193.43 187.74 194.41 190.55Q195.40 193.36 195.40 196.71L195.40 196.71L195.40 221.66L191.08 221.66Q189.74 221.66 189.00 221.25Q188.27 220.85 187.85 219.62L187.85 219.62L187.00 216.77Q185.50 218.11 184.08 219.13Q182.65 220.15 181.11 220.85Q179.57 221.54 177.82 221.91Q176.07 222.27 173.95 222.27L173.95 222.27Q171.45 222.27 169.33 221.60Q167.21 220.92 165.67 219.58Q164.13 218.23 163.29 216.23Q162.44 214.23 162.44 211.57L162.44 211.57Q162.44 210.07 162.94 208.59Q163.44 207.10 164.58 205.76Q165.71 204.41 167.52 203.21Q169.33 202.02 171.97 201.14Q174.61 200.25 178.11 199.69Q181.61 199.13 186.12 199.02L186.12 199.02L186.12 196.71Q186.12 192.74 184.42 190.84Q182.73 188.93 179.53 188.93L179.53 188.93Q177.22 188.93 175.70 189.47Q174.18 190.01 173.03 190.68Q171.87 191.36 170.93 191.90Q169.99 192.43 168.83 192.43L168.83 192.43Q167.83 192.43 167.14 191.91Q166.44 191.40 166.02 190.70L166.02 190.70ZM213.84 221.66L204.33 221.66L204.33 182.16L210.14 182.16Q211.99 182.16 212.57 183.89L212.57 183.89L213.18 186.81Q214.22 185.66 215.36 184.70Q216.49 183.73 217.78 183.04Q219.07 182.35 220.56 181.94Q222.04 181.54 223.81 181.54L223.81 181.54Q227.54 181.54 229.95 183.56Q232.36 185.58 233.55 188.93L233.55 188.93Q234.47 186.97 235.86 185.56Q237.24 184.16 238.90 183.27Q240.56 182.39 242.42 181.96Q244.29 181.54 246.18 181.54L246.18 181.54Q249.45 181.54 251.99 182.54Q254.53 183.54 256.26 185.47Q258.00 187.39 258.90 190.16Q259.81 192.94 259.81 196.52L259.81 196.52L259.81 221.66L250.30 221.66L250.30 196.52Q250.30 192.74 248.64 190.84Q246.99 188.93 243.79 188.93L243.79 188.93Q242.33 188.93 241.08 189.43Q239.82 189.93 238.88 190.88Q237.94 191.82 237.40 193.24Q236.86 194.67 236.86 196.52L236.86 196.52L236.86 221.66L227.31 221.66L227.31 196.52Q227.31 192.55 225.71 190.74Q224.12 188.93 221.04 188.93L221.04 188.93Q218.96 188.93 217.17 189.95Q215.38 190.97 213.84 192.74L213.84 192.74L213.84 221.66ZM289.68 211.45L289.68 204.79Q285.56 204.99 282.75 205.51Q279.94 206.03 278.25 206.83Q276.55 207.64 275.82 208.72Q275.09 209.80 275.09 211.07L275.09 211.07Q275.09 213.57 276.57 214.65Q278.06 215.73 280.44 215.73L280.44 215.73Q283.37 215.73 285.50 214.67Q287.64 213.61 289.68 211.45L289.68 211.45ZM269.58 190.70L267.89 187.66Q274.71 181.42 284.29 181.42L284.29 181.42Q287.76 181.42 290.49 182.56Q293.22 183.70 295.11 185.72Q297.00 187.74 297.98 190.55Q298.96 193.36 298.96 196.71L298.96 196.71L298.96 221.66L294.65 221.66Q293.30 221.66 292.57 221.25Q291.84 220.85 291.41 219.62L291.41 219.62L290.57 216.77Q289.07 218.11 287.64 219.13Q286.22 220.15 284.68 220.85Q283.14 221.54 281.39 221.91Q279.63 222.27 277.52 222.27L277.52 222.27Q275.01 222.27 272.90 221.60Q270.78 220.92 269.24 219.58Q267.70 218.23 266.85 216.23Q266.00 214.23 266.00 211.57L266.00 211.57Q266.00 210.07 266.50 208.59Q267.01 207.10 268.14 205.76Q269.28 204.41 271.09 203.21Q272.90 202.02 275.53 201.14Q278.17 200.25 281.67 199.69Q285.18 199.13 289.68 199.02L289.68 199.02L289.68 196.71Q289.68 192.74 287.99 190.84Q286.29 188.93 283.10 188.93L283.10 188.93Q280.79 188.93 279.27 189.47Q277.75 190.01 276.59 190.68Q275.44 191.36 274.49 191.90Q273.55 192.43 272.40 192.43L272.40 192.43Q271.39 192.43 270.70 191.91Q270.01 191.40 269.58 190.70L269.58 190.70ZM322.33 200.94L322.33 200.94Q324.10 200.94 325.41 200.46Q326.72 199.98 327.59 199.13Q328.45 198.29 328.89 197.09Q329.34 195.90 329.34 194.48L329.34 194.48Q329.34 191.55 327.59 189.84Q325.83 188.12 322.33 188.12L322.33 188.12Q318.83 188.12 317.07 189.84Q315.32 191.55 315.32 194.48L315.32 194.48Q315.32 195.86 315.77 197.05Q316.21 198.25 317.07 199.11Q317.94 199.98 319.27 200.46Q320.60 200.94 322.33 200.94ZM333.07 223.43L333.07 223.43Q333.07 222.27 332.38 221.54Q331.69 220.81 330.49 220.41Q329.30 220.00 327.70 219.81Q326.10 219.62 324.31 219.52Q322.52 219.42 320.62 219.35Q318.71 219.27 316.90 219.04L316.90 219.04Q315.32 219.92 314.34 221.12Q313.36 222.31 313.36 223.89L313.36 223.89Q313.36 224.93 313.88 225.83Q314.40 226.74 315.53 227.39Q316.67 228.05 318.48 228.41Q320.29 228.78 322.91 228.78L322.91 228.78Q325.56 228.78 327.49 228.37Q329.41 227.97 330.67 227.26Q331.92 226.55 332.49 225.56Q333.07 224.58 333.07 223.43ZM331.19 183.50L342.54 183.50L342.54 187.04Q342.54 188.74 340.50 189.12L340.50 189.12L336.96 189.78Q337.77 191.82 337.77 194.24L337.77 194.24Q337.77 197.17 336.59 199.54Q335.42 201.91 333.34 203.56Q331.26 205.22 328.43 206.12Q325.60 207.03 322.33 207.03L322.33 207.03Q321.17 207.03 320.10 206.91Q319.02 206.80 317.98 206.60L317.98 206.60Q316.13 207.72 316.13 209.11L316.13 209.11Q316.13 210.30 317.23 210.86Q318.33 211.42 320.14 211.65Q321.94 211.88 324.25 211.94Q326.56 211.99 328.99 212.19Q331.42 212.38 333.73 212.86Q336.04 213.34 337.85 214.38Q339.65 215.42 340.75 217.21Q341.85 219.00 341.85 221.81L341.85 221.81Q341.85 224.43 340.56 226.89Q339.27 229.36 336.83 231.28Q334.38 233.21 330.82 234.38Q327.26 235.55 322.71 235.55L322.71 235.55Q318.25 235.55 314.94 234.69Q311.63 233.82 309.43 232.38Q307.24 230.93 306.16 229.05Q305.08 227.16 305.08 225.12L305.08 225.12Q305.08 222.35 306.76 220.48Q308.43 218.61 311.36 217.50L311.36 217.50Q309.78 216.69 308.85 215.34Q307.93 213.99 307.93 211.80L307.93 211.80Q307.93 210.91 308.26 209.97Q308.59 209.03 309.22 208.10Q309.86 207.18 310.82 206.35Q311.78 205.52 313.09 204.87L313.09 204.87Q310.09 203.25 308.37 200.56Q306.66 197.86 306.66 194.24L306.66 194.24Q306.66 191.32 307.83 188.95Q309.01 186.58 311.11 184.91Q313.21 183.23 316.07 182.35Q318.94 181.46 322.33 181.46L322.33 181.46Q324.87 181.46 327.10 181.98Q329.34 182.50 331.19 183.50L331.19 183.50ZM366.03 181.54L366.03 181.54Q370.42 181.54 374.02 182.96Q377.62 184.39 380.18 187.01Q382.74 189.62 384.12 193.40Q385.51 197.17 385.51 201.83L385.51 201.83Q385.51 206.53 384.12 210.30Q382.74 214.07 380.18 216.73Q377.62 219.38 374.02 220.81Q370.42 222.23 366.03 222.23L366.03 222.23Q361.60 222.23 357.98 220.81Q354.36 219.38 351.80 216.73Q349.24 214.07 347.84 210.30Q346.43 206.53 346.43 201.83L346.43 201.83Q346.43 197.17 347.84 193.40Q349.24 189.62 351.80 187.01Q354.36 184.39 357.98 182.96Q361.60 181.54 366.03 181.54ZM366.03 214.92L366.03 214.92Q370.96 214.92 373.32 211.61Q375.69 208.30 375.69 201.91L375.69 201.91Q375.69 195.51 373.32 192.17Q370.96 188.82 366.03 188.82L366.03 188.82Q361.02 188.82 358.62 192.18Q356.21 195.55 356.21 201.91L356.21 201.91Q356.21 208.26 358.62 211.59Q361.02 214.92 366.03 214.92ZM423.58 187.04L421.08 190.51Q420.66 191.05 420.25 191.36Q419.85 191.66 419.08 191.66L419.08 191.66Q418.35 191.66 417.66 191.22Q416.96 190.78 416.00 190.22Q415.04 189.66 413.71 189.22Q412.38 188.78 410.42 188.78L410.42 188.78Q407.92 188.78 406.03 189.68Q404.14 190.59 402.89 192.28Q401.64 193.97 401.02 196.38Q400.41 198.79 400.41 201.83L400.41 201.83Q400.41 204.99 401.08 207.45Q401.76 209.91 403.03 211.59Q404.30 213.26 406.11 214.13Q407.92 215.00 410.19 215.00L410.19 215.00Q412.46 215.00 413.86 214.44Q415.27 213.88 416.23 213.21Q417.19 212.53 417.91 211.97Q418.62 211.42 419.50 211.42L419.50 211.42Q420.66 211.42 421.24 212.30L421.24 212.30L423.97 215.77Q422.39 217.61 420.54 218.87Q418.70 220.12 416.71 220.87Q414.73 221.62 412.63 221.93Q410.53 222.23 408.45 222.23L408.45 222.23Q404.80 222.23 401.56 220.87Q398.33 219.50 395.90 216.88Q393.48 214.26 392.07 210.47Q390.67 206.68 390.67 201.83L390.67 201.83Q390.67 197.48 391.92 193.76Q393.17 190.05 395.60 187.33Q398.02 184.62 401.60 183.08Q405.18 181.54 409.84 181.54L409.84 181.54Q414.27 181.54 417.60 182.96Q420.93 184.39 423.58 187.04L423.58 187.04ZM439.41 164.45L439.41 186.39Q441.72 184.23 444.49 182.89Q447.26 181.54 451.00 181.54L451.00 181.54Q454.23 181.54 456.73 182.64Q459.24 183.73 460.91 185.72Q462.59 187.70 463.45 190.45Q464.32 193.20 464.32 196.52L464.32 196.52L464.32 221.66L454.81 221.66L454.81 196.52Q454.81 192.90 453.15 190.91Q451.50 188.93 448.11 188.93L448.11 188.93Q445.65 188.93 443.49 190.05Q441.33 191.16 439.41 193.09L439.41 193.09L439.41 221.66L429.90 221.66L429.90 164.45L439.41 164.45ZM473.63 182.16L483.18 182.16L483.18 221.66L473.63 221.66L473.63 182.16ZM484.49 170.64L484.49 170.64Q484.49 171.88 483.99 172.95Q483.49 174.03 482.66 174.84Q481.84 175.65 480.72 176.13Q479.60 176.61 478.33 176.61L478.33 176.61Q477.10 176.61 476.00 176.13Q474.91 175.65 474.10 174.84Q473.29 174.03 472.81 172.95Q472.33 171.88 472.33 170.64L472.33 170.64Q472.33 169.37 472.81 168.26Q473.29 167.14 474.10 166.33Q474.91 165.52 476.00 165.04Q477.10 164.56 478.33 164.56L478.33 164.56Q479.60 164.56 480.72 165.04Q481.84 165.52 482.66 166.33Q483.49 167.14 483.99 168.26Q484.49 169.37 484.49 170.64Z" fill="#999999"/></svg>